#!OML:ASF H:\Terrain\Patient Classification 1\Walking\liu\liu.ASF
:FULLY-SPECIFIED
:DEGREES
295
root 0.023 16.2018 59.2263 6.89634 0.123 1.0014
lowerback -3.0273 0.517039 -3.5057
upperback 0.243084 0.782189 1.85891
thorax 1.87564 0.346329 3.92091
lowerneck -22.7501 -4.51739 -12.6781
upperneck 21.336 -5.10421 12.1579
head 11.3652 -1.86218 5.8112
rclavicle 6.06293e-015 -1.03368e-014
rhumerus -33.5991 15.5833 -86.7708
rradius 40.3688
rwrist -19.4326
rhand -30.4363 -23.4809
rfingers 7.12502
rthumb -3.73882 -53.4279
lclavicle 6.06293e-015 -1.03368e-014
lhumerus -42.6653 -0.287917 84.8113
lradius 20.0498
lwrist -5.46542
lhand -11.2552 -24.1867
lfingers 7.12502
lthumb 14.7746 5.26668
rfemur -12.4698 -3.82403 18.1604
rtibia 66.1781
rfoot 9.17324 -10.8279
rtoes 1.8406
lfemur -27.8729 4.33117 -26.6555
ltibia 30.9033
lfoot -10.394 3.05854
ltoes 3.02389
296
root 0.023 16.2408 59.4151 6.97474 0.123 1.11528
lowerback -3.08774 0.338123 -3.58376
upperback 0.284659 0.548934 1.82786
thorax 1.97395 0.226092 3.92369
lowerneck -22.8327 -4.35733 -11.9604
upperneck 21.3104 -4.95788 11.5531
head 11.3097 -1.80613 5.47559
rclavicle 9.93923e-015 -3.97569e-016
rhumerus -33.9896 14.9116 -86.8202
rradius 39.895
rwrist -18.7069
rhand -30.6224 -23.2999
rfingers 7.12502
rthumb -3.91854 -53.2436
lclavicle 9.93923e-015 -3.97569e-016
lhumerus -41.4382 -0.354907 84.7919
lradius 19.9912
lwrist -5.4552
lhand -11.3058 -23.891
lfingers 7.12502
lthumb 14.7259 5.56591
rfemur -14.2773 -3.98228 18.2298
rtibia 67.4465
rfoot 7.35438 -11.3025
rtoes 1.53028
lfemur -26.8776 4.09233 -26.7965
ltibia 30.1895
lfoot -10.4977 3.05026
ltoes 2.49673
297
root 0.023 16.2647 59.604 6.93319 0.123 1.29603
lowerback -3.25746 0.286771 -3.59885
upperback 0.431813 0.490229 1.68493
thorax 2.22761 0.189133 3.78414
lowerneck -23.1905 -4.15931 -11.6564
upperneck 21.6608 -4.81857 11.7144
head 11.4863 -1.68916 5.5267
rclavicle -8.24956e-015 -1.98785e-014
rhumerus -34.2928 14.2357 -86.8701
rradius 39.3962
rwrist -18.1673
rhand -30.7083 -23.0305
rfingers 7.12502
rthumb -4.00147 -52.9727
lclavicle -8.24956e-015 -1.98785e-014
lhumerus -40.0136 -0.595962 84.7288
lradius 19.8178
lwrist -6.00178
lhand -12.2914 -24.3509
lfingers 7.12502
lthumb 13.7762 5.17302
rfemur -15.7741 -3.9798 18.2432
rtibia 68.3838
rfoot 5.83094 -11.6681
rtoes -0.604223
lfemur -25.7326 4.05624 -27.0325
ltibia 29.4489
lfoot -10.4257 2.92783
ltoes 2.86832
298
root 0.023 16.2955 59.7928 6.76635 0.123 1.1297
lowerback -3.19953 0.268066 -3.25053
upperback 0.452046 0.449451 1.6911
thorax 2.22179 0.17288 3.59108
lowerneck -23.5503 -4.10412 -11.7639
upperneck 22.3374 -4.81492 12.0653
head 11.826 -1.64662 5.7176
rclavicle -6.80837e-015 3.97569e-015
rhumerus -34.9039 13.7679 -86.8816
rradius 39.0208
rwrist -17.9402
rhand -30.857 -23.5597
rfingers 7.12502
rthumb -4.1451 -53.4991
lclavicle -6.80837e-015 3.97569e-015
lhumerus -38.8279 -0.77588 84.7281
lradius 19.5553
lwrist -7.02919
lhand -13.6845 -26.553
lfingers 7.12502
lthumb 12.4333 3.05719
rfemur -16.9215 -3.87169 18.6462
rtibia 68.9537
rfoot 4.44874 -11.7386
rtoes -4.10698
lfemur -24.4105 4.15403 -26.9258
ltibia 28.6914
lfoot -10.5727 2.77409
ltoes 1.78475
299
root 0.0231 16.3356 59.9817 6.6504 0.123 0.827967
lowerback -3.15779 0.159682 -2.80283
upperback 0.400534 0.283311 1.80736
thorax 2.16072 0.0966347 3.44961
lowerneck -24.0838 -4.16308 -11.2216
upperneck 23.2313 -4.85732 11.157
head 12.2367 -1.72224 5.29992
rclavicle -1.1778e-014 -5.96354e-015
rhumerus -35.5142 13.5817 -86.9239
rradius 38.555
rwrist -17.7547
rhand -31.3877 -24.7887
rfingers 7.12502
rthumb -4.65754 -54.7175
lclavicle -1.1778e-014 -5.96354e-015
lhumerus -37.9088 -0.808543 84.7619
lradius 19.4886
lwrist -7.38808
lhand -14.0671 -28.1447
lfingers 7.12502
lthumb 12.0644 1.48755
rfemur -18.051 -3.63274 19.0844
rtibia 69.3204
rfoot 2.65176 -12.0995
rtoes -3.55767
lfemur -23.1488 4.23387 -26.7063
ltibia 27.9512
lfoot -11.0243 2.8919
ltoes -0.255075
300
root 0.0231 16.3658 60.1705 6.54567 0.123 0.857324
lowerback -3.23247 -0.0546177 -2.77803
upperback 0.426286 -0.00261046 1.83219
thorax 2.25227 -0.0481468 3.44754
lowerneck -22.9265 -3.85539 -11.4678
upperneck 22.28 -4.52014 11.6547
head 11.62 -1.55626 5.54651
rclavicle -4.96962e-017 -4.77083e-015
rhumerus -35.8736 13.3979 -86.9637
rradius 37.8555
rwrist -17.4003
rhand -31.4823 -24.8113
rfingers 7.12502
rthumb -4.7489 -54.7381
lclavicle -4.96962e-017 -4.77083e-015
lhumerus -36.8253 -0.587374 84.627
lradius 19.3996
lwrist -7.56274
lhand -13.7704 -27.4981
lfingers 7.12502
lthumb 12.3504 2.11712
rfemur -19.22 -3.60591 19.1773
rtibia 69.5965
rfoot 0.649341 -12.279
rtoes -2.8073
lfemur -21.9641 4.07179 -26.8034
ltibia 27.3212
lfoot -11.6585 3.01403
ltoes -0.956245
301
root 0.0231 16.3771 60.3594 6.45211 1.0498 1.06972
lowerback -3.2016 -0.338501 -3.05974
upperback 0.439995 -0.371626 1.86145
thorax 2.28118 -0.237091 3.61812
lowerneck -22.9801 -3.69915 -11.134
upperneck 22.3774 -4.34615 11.3856
head 11.6267 -1.48089 5.41735
rclavicle 5.2181e-015 2.06736e-014
rhumerus -36.3071 13.3011 -86.9231
rradius 37.2414
rwrist -17.2865
rhand -31.0034 -23.5292
rfingers 7.12502
rthumb -4.28638 -53.4659
lclavicle 5.2181e-015 2.06736e-014
lhumerus -35.5975 -0.529052 84.6587
lradius 19.2071
lwrist -7.80488
lhand -13.092 -26.5673
lfingers 7.12502
lthumb 13.0045 3.00734
rfemur -20.4582 -3.94002 19.3015
rtibia 69.7015
rfoot -1.51351 -12.018
rtoes -7.31358
lfemur -20.852 3.64588 -26.9924
ltibia 26.6957
lfoot -12.2678 2.82795
ltoes 0.00913311
302
root 0.0232 16.3727 60.3851 6.39643 1.0498 0.992198
lowerback -3.03359 -0.629058 -3.05002
upperback 0.40242 -0.767752 2.02855
thorax 2.18436 -0.433657 3.76639
lowerneck -23.7527 -3.73856 -10.8353
upperneck 23.2205 -4.29696 10.6902
head 12.0664 -1.50525 5.14361
rclavicle -6.55989e-015 7.55382e-015
rhumerus -36.9177 13.5142 -86.8824
rradius 36.95
rwrist -17.4304
rhand -31.1701 -23.7643
rfingers 7.12502
rthumb -4.44742 -53.6976
lclavicle -6.55989e-015 7.55382e-015
lhumerus -34.5454 -0.85711 84.9729
lradius 19.254
lwrist -7.48908
lhand -12.848 -27.1133
lfingers 7.12502
lthumb 13.2397 2.4462
rfemur -21.7785 -4.17583 19.8209
rtibia 69.6452
rfoot -3.36416 -11.8403
rtoes -11.2471
lfemur -19.951 3.19087 -26.8845
ltibia 26.1639
lfoot -12.4856 2.86671
ltoes -0.324155
303
root 0.0232 16.384 60.4108 6.34849 1.0498 0.823491
lowerback -2.87281 -0.786411 -2.81901
upperback 0.327864 -0.991964 2.13465
thorax 2.03485 -0.539737 3.73636
lowerneck -23.2622 -3.74063 -11.4657
upperneck 22.9825 -4.24382 11.1924
head 11.9009 -1.48587 5.44556
rclavicle -4.22417e-015 -2.38542e-015
rhumerus -37.6392 13.4135 -86.8222
rradius 36.6808
rwrist -17.2861
rhand -31.4577 -24.0762
rfingers 7.12502
rthumb -4.72507 -54.0035
lclavicle -4.22417e-015 -2.38542e-015
lhumerus -33.6646 -1.87852 85.4699
lradius 19.6079
lwrist -6.51149
lhand -14.693 -28.6946
lfingers 7.12502
lthumb 11.4609 0.972101
rfemur -22.9951 -4.24525 20.3185
rtibia 69.3839
rfoot -4.7858 -11.635
rtoes -12.5463
lfemur -19.1281 2.86087 -26.739
ltibia 25.8499
lfoot -12.8205 3.01721
ltoes -1.46225
304
root 0.0232 16.3965 60.4366 6.36331 1.0498 0.719112
lowerback -2.83634 -0.870011 -2.62901
upperback 0.256666 -1.11199 2.20175
thorax 1.949 -0.595452 3.6935
lowerneck -23.57 -3.81908 -11.2464
upperneck 23.4362 -4.33735 10.8441
head 12.1345 -1.54782 5.2765
rclavicle 2.83268e-014 3.18055e-015
rhumerus -38.4147 13.5356 -87.0511
rradius 36.2902
rwrist -18.0239
rhand -32.5653 -22.4605
rfingers 7.12502
rthumb -5.79456 -52.3613
lclavicle 2.83268e-014 3.18055e-015
lhumerus -32.7413 -3.03277 85.9721
lradius 20.0573
lwrist -5.70294
lhand -16.1038 -29.2656
lfingers 7.12502
lthumb 10.1 0.472035
rfemur -24.2735 -4.2057 20.6958
rtibia 68.9655
rfoot -6.17511 -11.3927
rtoes -13.6047
lfemur -18.4252 2.60379 -26.6151
ltibia 25.8217
lfoot -13.5855 2.77458
ltoes -0.650516
305
root 0.0233 16.405 60.4623 6.36195 1.0498 0.701198
lowerback -2.79958 -1.07069 -2.62224
upperback 0.214827 -1.38307 2.32681
thorax 1.91119 -0.730462 3.80726
lowerneck -22.8431 -3.74426 -11.8856
upperneck 22.9185 -4.2016 11.4168
head 11.8048 -1.48723 5.60741
rclavicle 1.34677e-014 -5.00937e-014
rhumerus -39.1707 14.2103 -87.4722
rradius 36.0012
rwrist -18.8979
rhand -34.0731 -22.2984
rfingers 7.12502
rthumb -7.25009 -52.1542
lclavicle 1.34677e-014 -5.00937e-014
lhumerus -31.6508 -3.26034 86.12
lradius 20.2421
lwrist -5.8704
lhand -14.2279 -28.0892
lfingers 7.12502
lthumb 11.9093 1.55212
rfemur -25.5062 -4.14708 20.9754
rtibia 68.3394
rfoot -7.35171 -11.0124
rtoes -14.1244
lfemur -17.7762 2.47392 -26.6129
ltibia 25.8285
lfoot -13.9005 2.61883
ltoes -1.32
